<svg width="512" height="512" viewBox="0 0 512 512" xmlns="http://www.w3.org/2000/svg">
  <defs>
    <!-- Background Glass Gradient -->
    <linearGradient id="bg_glass" x1="0%" y1="0%" x2="100%" y2="100%">
      <stop offset="0%" stop-color="#a6e4ff" stop-opacity="0.9"/>
      <stop offset="100%" stop-color="#2a9d8f" stop-opacity="0.6"/>
    </linearGradient>
    
    <!-- Arrow Gradient (Red to Orange to Yellow) -->
    <linearGradient id="arrow_grad" x1="0%" y1="100%" x2="100%" y2="0%">
      <stop offset="0%" stop-color="#ef4444" />
      <stop offset="50%" stop-color="#f97316" />
      <stop offset="100%" stop-color="#fbbf24" />
    </linearGradient>

    <!-- Eye Iris Gradient -->
    <linearGradient id="eye_grad" x1="0%" y1="0%" x2="0%" y2="100%">
      <stop offset="0%" stop-color="#60a5fa" />
      <stop offset="100%" stop-color="#1d4ed8" />
    </linearGradient>

    <!-- Book Gradient -->
    <linearGradient id="book_grad" x1="0%" y1="0%" x2="0%" y2="100%">
        <stop offset="0%" stop-color="#4ade80" />
        <stop offset="100%" stop-color="#15803d" />
    </linearGradient>

    <!-- Shadows and Glows -->
    <filter id="dropShadow" x="-40%" y="-40%" width="180%" height="180%">
      <feDropShadow dx="0" dy="4" stdDeviation="6" flood-color="#000" flood-opacity="0.2"/>
    </filter>
    
    <filter id="innerGlow" x="-20%" y="-20%" width="140%" height="140%">
       <feGaussianBlur stdDeviation="3" result="blur"/>
       <feComposite in="SourceGraphic" in2="blur" operator="arithmetic" k2="1" k3="1"/>
    </filter>
  </defs>

  <!-- 1. Outer Glass Container -->
  <rect x="30" y="30" width="452" height="452" rx="90" fill="url(#bg_glass)" stroke="white" stroke-width="6" stroke-opacity="0.6" />
  <rect x="40" y="40" width="432" height="432" rx="80" fill="none" stroke="white" stroke-width="2" stroke-opacity="0.3" />

  <!-- 2. Inner White Circle Platform -->
  <circle cx="256" cy="256" r="190" fill="white" fill-opacity="0.95" filter="url(#dropShadow)" />
  <circle cx="256" cy="256" r="180" fill="none" stroke="#e2e8f0" stroke-width="2" />

  <!-- 3. The Eye (Center) -->
  <g transform="translate(131, 156) scale(1)">
      <!-- Sclera / Outline -->
      <path d="M0 100 Q 125 -20 250 100 Q 125 220 0 100 Z" fill="#f0f9ff" stroke="#0ea5e9" stroke-width="10" stroke-linejoin="round" />
      <!-- Iris -->
      <circle cx="125" cy="100" r="50" fill="url(#eye_grad)" />
      <!-- Pupil -->
      <circle cx="125" cy="100" r="22" fill="#0f172a" />
      <!-- Reflection -->
      <circle cx="145" cy="85" r="12" fill="white" opacity="0.8" />
  </g>

  <!-- 4. The Book (Bottom) -->
  <g transform="translate(140, 310) scale(0.9)">
     <!-- Book Base Pages -->
     <path d="M5 50 Q 80 80 155 50 L 155 70 Q 80 100 5 70 Z" fill="url(#book_grad)" filter="url(#dropShadow)" />
     <path d="M155 50 Q 230 80 305 50 L 305 70 Q 230 100 155 70 Z" fill="url(#book_grad)" filter="url(#dropShadow)" />
     
     <!-- Page Lines (Stylized) -->
     <path d="M15 40 Q 85 70 145 40" fill="none" stroke="#22c55e" stroke-width="5" stroke-linecap="round" />
     <path d="M165 40 Q 225 70 295 40" fill="none" stroke="#22c55e" stroke-width="5" stroke-linecap="round" />
     
     <path d="M20 25 Q 85 55 145 25" fill="none" stroke="#86efac" stroke-width="5" stroke-linecap="round" />
     <path d="M165 25 Q 225 55 290 25" fill="none" stroke="#86efac" stroke-width="5" stroke-linecap="round" />
     
     <!-- Book Center Spine -->
     <path d="M155 50 L 155 70" stroke="#14532d" stroke-width="2" />
  </g>

  <!-- 5. Chart Arrow (Overlay) -->
  <!-- Zigzag Upwards -->
  <path d="M180 300 L 230 250 L 270 290 L 350 170" fill="none" stroke="url(#arrow_grad)" stroke-width="28" stroke-linecap="round" stroke-linejoin="round" filter="url(#dropShadow)" />
  <!-- Arrow Head -->
  <path d="M310 170 L 350 170 L 350 215" fill="none" stroke="url(#arrow_grad)" stroke-width="28" stroke-linecap="round" stroke-linejoin="round" />

  <!-- 6. Top Icons Badges -->
  <!-- Green Check -->
  <g transform="translate(190, 160)">
      <circle cx="0" cy="0" r="18" fill="#22c55e" filter="url(#dropShadow)" />
      <path d="M-8 0 L -3 5 L 8 -6" fill="none" stroke="white" stroke-width="4" stroke-linecap="round" stroke-linejoin="round" />
  </g>

  <!-- Yellow Smiley -->
  <g transform="translate(256, 140)">
      <circle cx="0" cy="0" r="18" fill="#fbbf24" filter="url(#dropShadow)" />
      <circle cx="-5" cy="-3" r="2" fill="#78350f" />
      <circle cx="5" cy="-3" r="2" fill="#78350f" />
      <path d="M-6 5 Q 0 10 6 5" fill="none" stroke="#78350f" stroke-width="2" stroke-linecap="round" />
  </g>

  <!-- Red A+ -->
  <g transform="translate(322, 160)">
      <circle cx="0" cy="0" r="18" fill="#fecaca" filter="url(#dropShadow)" opacity="0.0" /> <!-- Invisible container for spacing if needed -->
      <text x="0" y="8" text-anchor="middle" font-family="Arial, sans-serif" font-weight="900" font-size="28" fill="#ef4444" filter="url(#dropShadow)">A+</text>
  </g>

</svg>